<?xml version="1.0" standalone="no"?><!DOCTYPE svg PUBLIC "-//W3C//DTD SVG 1.1//EN" "http://www.w3.org/Graphics/SVG/1.1/DTD/svg11.dtd"><svg t="1662025433169" class="icon" viewBox="0 0 1024 1024" version="1.1" xmlns="http://www.w3.org/2000/svg" p-id="1900" xmlns:xlink="http://www.w3.org/1999/xlink" width="200" height="200"><path d="M535.301 744.8l-23.3 46.5-23.3-46.5-23.3-186.1h93.1l-23.2 186.1z" fill="#FFA000" p-id="1901"></path><path d="M628.301 977.5c0 25.7-20.8 46.5-46.5 46.5h-139.6c-25.7 0-46.5-20.8-46.5-46.5V814.6c0-25.7 93.1-69.8 93.1-69.8h46.5s93.1 44.1 93.1 69.8v162.9z" fill="#FBC02D" p-id="1902"></path><path d="M535.301 744.8v23.3h-46.5v-23.3l-23.3-186.1h93.1l-23.3 186.1zM412.201 534.7c-11.9-3-288.9-75.3-334.8-297.1-20.4-98.8 4.9-155.9 29.7-186.1 24.7-31.1 61.7-49.8 101.4-51.2 32.7-2.2 64.9 9.2 88.8 31.6 16 16.8 25 39.1 25.1 62.3 1.1 49.8-38.4 91.2-88.2 92.3h-4.8c-11.5-0.3-22.7-3.2-32.9-8.5-22.4-12-35.9-35.9-34.5-61.3h46.5c0 13.4 5.2 17.8 9.7 20.2 3.5 1.7 7.3 2.8 11.2 3.1 24.1 1.6 45-16.8 46.5-40.9 0.1-1.9 0.1-3.8 0-5.6-0.3-11.1-4.8-21.6-12.4-29.5a75.607 75.607 0 0 0-55-17c-25.6 1.5-49.4 13.9-65.4 34-26.4 32.5-33.4 83.4-20.2 147.5 40 193.5 298 260.6 300.6 261.3 0.1-0.3-11.3 44.9-11.3 44.9zM607.201 535.4l-14-44.4c2.3-0.7 234.3-75.9 300.3-264.7 20.2-57.7 18.8-103.3-4.2-135.7-18.9-25.4-48.1-41.1-79.7-42.7-69 0-69.8 44.6-69.8 46.5-1.5 24.2 16.8 45 41 46.5 1.9 0.1 3.7 0.1 5.6 0 11.7 1.1 22.1-7.4 23.3-19.1 0.1-1.4 0.1-2.8 0-4.2h46.5c1.1 37.5-28.4 68.7-65.9 69.8h-3.9c-49.9 1.5-91.6-37.8-93.1-87.8-0.1-1.8-0.1-3.5 0-5.3 0-32.2 24.3-93.1 116.3-93.1 46.7 1.8 90 24.7 117.7 62.3 22.1 31.2 41.9 87.4 10.2 178-73.8 211.2-319.9 290.6-330.3 293.9z" fill="#E5A24A" p-id="1903"></path><path d="M628.301 861.1h-232.6v-46.5c0-25.6 93.1-69.8 93.1-69.8h46.5s93.1 44.2 93.1 69.8v46.5zM744.701 23.5c0 186.1-48.5 581.7-232.7 581.7s-232.7-395.5-232.7-581.7h465.4z" fill="#FFBA57" p-id="1904"></path><path d="M535.301 395.8h-46.5v-172l-46.5 15.5v-40.9l88.7-35.2h4.4v232.6z" fill="#FFECB3" p-id="1905"></path><path d="M349.101 837.9h325.7V1024h-325.7z" fill="#7A534B" p-id="1906"></path><path d="M395.701 907.7h232.7v46.5h-232.7z" fill="#FFE082" p-id="1907"></path></svg>